<svg xmlns="http://www.w3.org/2000/svg" xmlns:xlink="http://www.w3.org/1999/xlink" width="1000" zoomAndPan="magnify" viewBox="0 0 750 749.999995" height="1000" preserveAspectRatio="xMidYMid meet" version="1.0"><defs><clipPath id="da844028ec"><path d="M 44.363281 131.292969 L 705.863281 131.292969 L 705.863281 618.792969 L 44.363281 618.792969 Z M 44.363281 131.292969 " clip-rule="nonzero"/></clipPath><clipPath id="3aae625aa4"><path d="M 212 184 L 221 184 L 221 193 L 212 193 Z M 212 184 " clip-rule="nonzero"/></clipPath><clipPath id="133260119b"><path d="M 191.933594 163.621094 L 232.808594 146.675781 L 249.753906 187.550781 L 208.878906 204.5 Z M 191.933594 163.621094 " clip-rule="nonzero"/></clipPath><clipPath id="1cb9c264e3"><path d="M 191.933594 163.621094 L 232.808594 146.675781 L 249.753906 187.550781 L 208.878906 204.5 Z M 191.933594 163.621094 " clip-rule="nonzero"/></clipPath><clipPath id="0ac12352af"><path d="M 200 155 L 242 155 L 242 197 L 200 197 Z M 200 155 " clip-rule="nonzero"/></clipPath><clipPath id="6bfd826d90"><path d="M 191.933594 163.621094 L 232.808594 146.675781 L 249.753906 187.550781 L 208.878906 204.5 Z M 191.933594 163.621094 " clip-rule="nonzero"/></clipPath><clipPath id="910dde82d7"><path d="M 191.933594 163.621094 L 232.808594 146.675781 L 249.753906 187.550781 L 208.878906 204.5 Z M 191.933594 163.621094 " clip-rule="nonzero"/></clipPath><clipPath id="234e90f51d"><path d="M 202 164 L 212 164 L 212 174 L 202 174 Z M 202 164 " clip-rule="nonzero"/></clipPath><clipPath id="442edb7e02"><path d="M 191.933594 163.621094 L 232.808594 146.675781 L 249.753906 187.550781 L 208.878906 204.5 Z M 191.933594 163.621094 " clip-rule="nonzero"/></clipPath><clipPath id="b98bacc5e9"><path d="M 191.933594 163.621094 L 232.808594 146.675781 L 249.753906 187.550781 L 208.878906 204.5 Z M 191.933594 163.621094 " clip-rule="nonzero"/></clipPath><clipPath id="bf955fed91"><path d="M 221 152 L 235 152 L 235 167 L 221 167 Z M 221 152 " clip-rule="nonzero"/></clipPath><clipPath id="4b33f352d8"><path d="M 191.933594 163.621094 L 232.808594 146.675781 L 249.753906 187.550781 L 208.878906 204.5 Z M 191.933594 163.621094 " clip-rule="nonzero"/></clipPath><clipPath id="b6eebb1f99"><path d="M 191.933594 163.621094 L 232.808594 146.675781 L 249.753906 187.550781 L 208.878906 204.5 Z M 191.933594 163.621094 " clip-rule="nonzero"/></clipPath><clipPath id="dc2f332da1"><path d="M 229 151 L 233 151 L 233 155 L 229 155 Z M 229 151 " clip-rule="nonzero"/></clipPath><clipPath id="47502be8f8"><path d="M 191.933594 163.621094 L 232.808594 146.675781 L 249.753906 187.550781 L 208.878906 204.5 Z M 191.933594 163.621094 " clip-rule="nonzero"/></clipPath><clipPath id="62846f5b49"><path d="M 191.933594 163.621094 L 232.808594 146.675781 L 249.753906 187.550781 L 208.878906 204.5 Z M 191.933594 163.621094 " clip-rule="nonzero"/></clipPath><clipPath id="28fd5d408d"><path d="M 217 153 L 222 153 L 222 158 L 217 158 Z M 217 153 " clip-rule="nonzero"/></clipPath><clipPath id="f3952dd8df"><path d="M 191.933594 163.621094 L 232.808594 146.675781 L 249.753906 187.550781 L 208.878906 204.5 Z M 191.933594 163.621094 " clip-rule="nonzero"/></clipPath><clipPath id="2b2d419809"><path d="M 191.933594 163.621094 L 232.808594 146.675781 L 249.753906 187.550781 L 208.878906 204.5 Z M 191.933594 163.621094 " clip-rule="nonzero"/></clipPath><clipPath id="4259821028"><path d="M 624 288 L 629 288 L 629 294 L 624 294 Z M 624 288 " clip-rule="nonzero"/></clipPath><clipPath id="a8d5d6a332"><path d="M 632.046875 267.042969 L 657.050781 284.945312 L 639.148438 309.949219 L 614.144531 292.046875 Z M 632.046875 267.042969 " clip-rule="nonzero"/></clipPath><clipPath id="d705451ed0"><path d="M 632.046875 267.042969 L 657.050781 284.945312 L 639.148438 309.949219 L 614.144531 292.046875 Z M 632.046875 267.042969 " clip-rule="nonzero"/></clipPath><clipPath id="7f73395dbf"><path d="M 623 276 L 649 276 L 649 302 L 623 302 Z M 623 276 " clip-rule="nonzero"/></clipPath><clipPath id="0bae15e3a0"><path d="M 632.046875 267.042969 L 657.050781 284.945312 L 639.148438 309.949219 L 614.144531 292.046875 Z M 632.046875 267.042969 " clip-rule="nonzero"/></clipPath><clipPath id="f1f6f9f026"><path d="M 632.046875 267.042969 L 657.050781 284.945312 L 639.148438 309.949219 L 614.144531 292.046875 Z M 632.046875 267.042969 " clip-rule="nonzero"/></clipPath><clipPath id="b3583805ff"><path d="M 631 275 L 638 275 L 638 281 L 631 281 Z M 631 275 " clip-rule="nonzero"/></clipPath><clipPath id="8e34baa16e"><path d="M 632.046875 267.042969 L 657.050781 284.945312 L 639.148438 309.949219 L 614.144531 292.046875 Z M 632.046875 267.042969 " clip-rule="nonzero"/></clipPath><clipPath id="3dc262a215"><path d="M 632.046875 267.042969 L 657.050781 284.945312 L 639.148438 309.949219 L 614.144531 292.046875 Z M 632.046875 267.042969 " clip-rule="nonzero"/></clipPath><clipPath id="068a474aa9"><path d="M 643 282 L 652 282 L 652 291 L 643 291 Z M 643 282 " clip-rule="nonzero"/></clipPath><clipPath id="049d1208b0"><path d="M 632.046875 267.042969 L 657.050781 284.945312 L 639.148438 309.949219 L 614.144531 292.046875 Z M 632.046875 267.042969 " clip-rule="nonzero"/></clipPath><clipPath id="36704f9ca2"><path d="M 632.046875 267.042969 L 657.050781 284.945312 L 639.148438 309.949219 L 614.144531 292.046875 Z M 632.046875 267.042969 " clip-rule="nonzero"/></clipPath><clipPath id="2d42d576ed"><path d="M 651 285 L 654 285 L 654 288 L 651 288 Z M 651 285 " clip-rule="nonzero"/></clipPath><clipPath id="f7a6c3b7db"><path d="M 632.046875 267.042969 L 657.050781 284.945312 L 639.148438 309.949219 L 614.144531 292.046875 Z M 632.046875 267.042969 " clip-rule="nonzero"/></clipPath><clipPath id="9724919a79"><path d="M 632.046875 267.042969 L 657.050781 284.945312 L 639.148438 309.949219 L 614.144531 292.046875 Z M 632.046875 267.042969 " clip-rule="nonzero"/></clipPath><clipPath id="cdbd8ff36f"><path d="M 646 279 L 649 279 L 649 282 L 646 282 Z M 646 279 " clip-rule="nonzero"/></clipPath><clipPath id="53ba4072ca"><path d="M 632.046875 267.042969 L 657.050781 284.945312 L 639.148438 309.949219 L 614.144531 292.046875 Z M 632.046875 267.042969 " clip-rule="nonzero"/></clipPath><clipPath id="b7f1c6dbe9"><path d="M 632.046875 267.042969 L 657.050781 284.945312 L 639.148438 309.949219 L 614.144531 292.046875 Z M 632.046875 267.042969 " clip-rule="nonzero"/></clipPath><clipPath id="296fcb2987"><path d="M 258 537 L 263 537 L 263 543 L 258 543 Z M 258 537 " clip-rule="nonzero"/></clipPath><clipPath id="20cf8fac55"><path d="M 254.492188 563.761719 L 229.773438 545.46875 L 248.066406 520.753906 L 272.785156 539.042969 Z M 254.492188 563.761719 " clip-rule="nonzero"/></clipPath><clipPath id="a043c00cce"><path d="M 254.492188 563.761719 L 229.773438 545.46875 L 248.066406 520.753906 L 272.785156 539.042969 Z M 254.492188 563.761719 " clip-rule="nonzero"/></clipPath><clipPath id="4db494d8cb"><path d="M 238 529 L 264 529 L 264 555 L 238 555 Z M 238 529 " clip-rule="nonzero"/></clipPath><clipPath id="3841aea9f4"><path d="M 254.492188 563.761719 L 229.773438 545.46875 L 248.066406 520.753906 L 272.785156 539.042969 Z M 254.492188 563.761719 " clip-rule="nonzero"/></clipPath><clipPath id="91b4e57536"><path d="M 254.492188 563.761719 L 229.773438 545.46875 L 248.066406 520.753906 L 272.785156 539.042969 Z M 254.492188 563.761719 " clip-rule="nonzero"/></clipPath><clipPath id="bd9f745eca"><path d="M 249 550 L 255 550 L 255 556 L 249 556 Z M 249 550 " clip-rule="nonzero"/></clipPath><clipPath id="210b0b25f0"><path d="M 254.492188 563.761719 L 229.773438 545.46875 L 248.066406 520.753906 L 272.785156 539.042969 Z M 254.492188 563.761719 " clip-rule="nonzero"/></clipPath><clipPath id="41f7f2a1be"><path d="M 254.492188 563.761719 L 229.773438 545.46875 L 248.066406 520.753906 L 272.785156 539.042969 Z M 254.492188 563.761719 " clip-rule="nonzero"/></clipPath><clipPath id="1a9cdb607a"><path d="M 235 539 L 244 539 L 244 548 L 235 548 Z M 235 539 " clip-rule="nonzero"/></clipPath><clipPath id="72db5eb5a6"><path d="M 254.492188 563.761719 L 229.773438 545.46875 L 248.066406 520.753906 L 272.785156 539.042969 Z M 254.492188 563.761719 " clip-rule="nonzero"/></clipPath><clipPath id="bb7ae05a5f"><path d="M 254.492188 563.761719 L 229.773438 545.46875 L 248.066406 520.753906 L 272.785156 539.042969 Z M 254.492188 563.761719 " clip-rule="nonzero"/></clipPath><clipPath id="df6c8c9e67"><path d="M 233 543 L 236 543 L 236 546 L 233 546 Z M 233 543 " clip-rule="nonzero"/></clipPath><clipPath id="4afd9613ca"><path d="M 254.492188 563.761719 L 229.773438 545.46875 L 248.066406 520.753906 L 272.785156 539.042969 Z M 254.492188 563.761719 " clip-rule="nonzero"/></clipPath><clipPath id="0cbace875e"><path d="M 254.492188 563.761719 L 229.773438 545.46875 L 248.066406 520.753906 L 272.785156 539.042969 Z M 254.492188 563.761719 " clip-rule="nonzero"/></clipPath><clipPath id="9074f26bcf"><path d="M 238 549 L 241 549 L 241 552 L 238 552 Z M 238 549 " clip-rule="nonzero"/></clipPath><clipPath id="0c5e527b61"><path d="M 254.492188 563.761719 L 229.773438 545.46875 L 248.066406 520.753906 L 272.785156 539.042969 Z M 254.492188 563.761719 " clip-rule="nonzero"/></clipPath><clipPath id="f19283a7f1"><path d="M 254.492188 563.761719 L 229.773438 545.46875 L 248.066406 520.753906 L 272.785156 539.042969 Z M 254.492188 563.761719 " clip-rule="nonzero"/></clipPath></defs><rect x="-75" width="900" fill="#ffffff" y="-74.999999" height="899.999994" fill-opacity="1"/><rect x="-75" width="900" fill="#ffffff" y="-74.999999" height="899.999994" fill-opacity="1"/><g clip-path="url(#da844028ec)"><path fill="#000000" d="M 477.757812 131.46875 C 456.429688 133.171875 440.933594 136.199219 408.203125 145 C 404.394531 146.039062 393.28125 148.953125 383.527344 151.492188 C 324.765625 166.789062 307.796875 172.15625 267.996094 188.082031 C 220.894531 206.925781 181.355469 227.269531 147.011719 250.296875 C 120.921875 267.8125 103.34375 281.464844 85.507812 298.085938 C 63.429688 318.660156 52.605469 335.25 47.210938 356.808594 C 43.226562 372.679688 43.71875 385.664062 48.738281 395.589844 C 49.488281 397.089844 50.789062 400.410156 51.597656 402.949219 C 54.714844 412.617188 58.207031 420.550781 67.671875 439.308594 C 75.234375 454.3125 77.601562 458.671875 81.382812 464.296875 C 86.171875 471.453125 92.117188 477.859375 96.9375 481.0625 C 105.796875 486.949219 118.148438 491.421875 131.339844 493.527344 C 148.050781 496.210938 178.644531 495.402344 211.660156 491.363281 C 240.867188 487.816406 284.9375 479.996094 301.9375 475.378906 C 307.191406 473.933594 309.066406 472.839844 310.191406 470.53125 C 310.941406 469 310.941406 467.933594 310.25 466.433594 C 309.238281 464.210938 306.929688 462.910156 303.640625 462.625 C 301.9375 462.480469 300.78125 462.679688 293.769531 464.382812 C 259.28125 472.636719 226.148438 478.003906 191.167969 480.976562 C 166.78125 483.082031 150.90625 483.253906 136.074219 481.554688 C 123.519531 480.140625 115.175781 477.945312 107.617188 474.050781 C 97.773438 468.972656 91.828125 462.480469 83.515625 447.675781 C 77.917969 437.75 65.046875 411.230469 65.566406 410.710938 C 65.652344 410.625 66.375 410.882812 67.152344 411.289062 C 70.730469 413.105469 76.878906 415.269531 82.074219 416.539062 C 93.417969 419.308594 114.28125 420.984375 117.429688 419.398438 C 118.265625 418.964844 119.507812 417.664062 119.996094 416.742188 C 120.546875 415.675781 120.371094 413.652344 119.652344 412.585938 C 119.132812 411.808594 118.582031 411.460938 117.023438 410.941406 C 115.035156 410.277344 106.347656 408.488281 97.804688 406.988281 C 80.863281 404.015625 66.835938 397.898438 61.554688 391.175781 C 57.800781 386.414062 56.589844 381.507812 56.90625 372.359375 C 57.082031 366.9375 57.570312 363.328125 58.898438 357.5 C 63.488281 337.070312 75.839844 320.160156 103.429688 296.46875 C 126.636719 276.558594 152.292969 259.097656 187.273438 239.417969 C 221.414062 220.199219 256.855469 204.042969 291.316406 191.921875 C 309.875 185.371094 340.46875 176.253906 384.105469 164.191406 C 428.984375 151.8125 447.078125 147.828125 472.421875 144.800781 C 479.636719 143.90625 493.835938 143.816406 498.972656 144.625 C 508.351562 146.070312 515.25 148.578125 521.6875 152.878906 C 528.902344 157.699219 532.738281 165.429688 532.738281 175.183594 C 532.738281 183.234375 530.835938 190.507812 526.21875 199.800781 C 517.386719 217.660156 500.617188 235.121094 470.917969 257.28125 C 451.699219 271.652344 435.621094 281.722656 400.699219 301.289062 C 355.128906 326.824219 327.304688 341.859375 302.542969 354.296875 L 297.03125 357.066406 L 296.828125 353.027344 C 296.339844 342.8125 297.984375 329.96875 301.160156 318.859375 C 302.773438 313.234375 303.929688 310.289062 306.816406 304.632812 C 315.269531 288.011719 328.546875 274.824219 345 266.746094 C 352.269531 263.167969 357.957031 261.378906 364.625 260.542969 C 366.066406 260.367188 367.769531 260.023438 368.433594 259.792969 C 370.914062 258.898438 372.214844 256.269531 371.261719 254.019531 C 370.625 252.492188 369.875 251.742188 368.144531 250.992188 C 366.757812 250.414062 366.328125 250.382812 362.890625 250.527344 C 351.320312 251.046875 337.292969 256.90625 322.804688 267.238281 C 313.742188 273.730469 305.027344 282.589844 299.398438 290.984375 C 296.972656 294.621094 292.816406 303.046875 290.882812 308.242188 C 287.074219 318.542969 284.5625 330.171875 283.640625 341.742188 C 283.207031 347.199219 283.464844 360.066406 284.101562 365.148438 C 285.199219 374.121094 287.191406 380.84375 291.058594 388.925781 C 298.15625 403.699219 308.144531 415.472656 326.816406 431.027344 C 342.457031 444.097656 362.515625 457.949219 386.847656 472.550781 C 412.648438 488.015625 442.925781 501.175781 471.46875 509.3125 C 473.890625 509.976562 475.824219 510.613281 475.738281 510.667969 C 475.59375 510.8125 466.820312 508.449219 461.105469 506.6875 C 434.496094 498.519531 395.070312 479.910156 367.078125 462.304688 C 345.777344 448.917969 328.75 435.5 312.816406 419.539062 C 292.527344 399.285156 283.351562 387.453125 277.320312 373.859375 C 272.09375 362.03125 269.527344 350.371094 269.527344 338.484375 C 269.527344 327.519531 271.605469 319.699219 277.753906 307.347656 C 285.804688 291.214844 295.847656 278.605469 307.910156 269.515625 C 314.320312 264.699219 320.207031 261.871094 327.96875 259.9375 C 330.597656 259.300781 334.984375 257.628906 336.457031 256.734375 C 338.535156 255.433594 339.167969 252.894531 337.695312 251.511719 C 336.222656 250.097656 334.753906 249.75 329.992188 249.777344 C 326.671875 249.777344 324.96875 249.921875 322.632812 250.414062 C 311.808594 252.691406 301.332031 258.78125 290.652344 269.027344 C 287.996094 271.566406 286.871094 272.429688 285.398438 273.066406 C 267.824219 280.769531 251.515625 293.554688 231.226562 315.570312 C 225.253906 322.0625 224.503906 322.84375 224.503906 322.4375 C 224.503906 322.324219 225.570312 319.582031 226.871094 316.320312 C 229.667969 309.222656 232.699219 302.960938 236.652344 296.09375 C 248.976562 274.683594 262.023438 257.308594 278.039062 240.949219 C 292.703125 225.972656 306.757812 214.804688 323.0625 205.167969 C 325.285156 203.839844 327.480469 202.425781 327.914062 201.992188 C 331 199.164062 329.617188 195.960938 325.460938 196.25 C 324.074219 196.367188 323.007812 196.769531 319.339844 198.617188 C 302.859375 206.898438 286.726562 219.363281 271 236.015625 C 249.640625 258.609375 234.605469 279.15625 224.011719 300.160156 L 221.558594 305.011719 L 218.789062 306.394531 C 217.230469 307.175781 214.085938 308.644531 211.746094 309.714844 C 191.917969 318.574219 174.488281 330.578125 153.792969 349.535156 C 146.550781 356.144531 131.136719 371.785156 129.664062 373.949219 C 128.28125 376.023438 127.617188 378.046875 127.933594 379.285156 C 128.050781 379.71875 128.597656 380.554688 129.144531 381.105469 C 130.097656 382.054688 130.214844 382.085938 131.945312 381.96875 C 133.996094 381.855469 135.898438 381.046875 137.34375 379.660156 C 137.890625 379.140625 141.238281 375.59375 144.730469 371.785156 C 151.859375 364.078125 160.144531 355.796875 164.761719 351.84375 C 176.738281 341.570312 189.609375 332.683594 209.410156 321.023438 C 213.074219 318.859375 216.164062 317.101562 216.277344 317.101562 C 216.363281 317.101562 216.308594 317.332031 216.164062 317.648438 C 214.921875 319.929688 202.480469 357.558594 201.097656 363.125 C 200.230469 366.675781 200.40625 368.550781 201.820312 370.050781 C 202.625 370.890625 202.972656 371.0625 204.011719 371.0625 C 204.675781 371.0625 205.65625 370.859375 206.207031 370.601562 C 207.332031 370.050781 209.089844 368.207031 209.554688 367.078125 C 209.726562 366.648438 210.160156 365.722656 210.503906 365.003906 C 210.882812 364.28125 211.457031 362.808594 211.777344 361.683594 C 213.738281 355.304688 220.320312 342.925781 226.003906 334.90625 C 232.066406 326.363281 248.917969 308.90625 260.148438 299.5 C 265.773438 294.792969 274.261719 288.476562 273.710938 289.398438 C 273.566406 289.628906 272.613281 291.128906 271.546875 292.71875 C 262.773438 305.933594 258.15625 316.925781 256.367188 328.933594 C 255.761719 332.941406 255.671875 342.925781 256.222656 347.253906 C 258.589844 366.503906 265.082031 382.289062 277.320312 398.621094 C 285.773438 409.902344 302.890625 427.304688 318.878906 440.921875 C 363.730469 479.128906 419.660156 507.785156 477.613281 522.269531 C 505.523438 529.253906 527.804688 532.195312 560.300781 533.265625 C 572.480469 533.667969 590.085938 533.4375 598.253906 532.800781 C 631.847656 530.175781 657.707031 522.125 677.851562 508.042969 C 680.914062 505.878906 683.683594 504.0625 683.683594 504.207031 C 683.683594 504.261719 682.644531 506.746094 681.34375 509.746094 C 676.324219 521.433594 672.425781 529.050781 667.203125 537.273438 C 654.128906 557.878906 642.988281 569.710938 628.414062 578.453125 C 621.226562 582.78125 607.488281 589.5625 599.351562 592.824219 C 567.054688 605.695312 531.09375 609.964844 492.335938 605.492188 C 468.839844 602.808594 440.328125 594.640625 413.714844 583.011719 C 395.476562 575.046875 377.898438 565.929688 349.761719 549.828125 C 343.324219 546.132812 333.019531 540.246094 326.816406 536.699219 C 304.96875 524.203125 294.695312 518 283.320312 510.4375 C 276.453125 505.878906 274.867188 505.128906 272.152344 505.300781 C 270.507812 505.417969 270.21875 505.53125 269.496094 506.339844 C 268.027344 507.984375 268.515625 510.0625 271.027344 512.546875 C 274.085938 515.546875 285.371094 523.886719 295.355469 530.464844 C 305.660156 537.273438 315.300781 543.074219 335.328125 554.503906 C 375.765625 577.558594 394.351562 587.253906 412.53125 594.84375 C 427.800781 601.21875 448.550781 607.625 467.511719 611.867188 C 489.621094 616.804688 506.476562 618.765625 526.535156 618.792969 C 537.703125 618.792969 542.984375 618.503906 551.933594 617.46875 C 581.371094 614.0625 610.722656 603.992188 637.101562 588.265625 C 652.167969 579.261719 664.605469 567.054688 676.035156 549.972656 C 687.261719 533.175781 697.335938 511.132812 701.546875 494.164062 C 704.492188 482.332031 705.703125 472.433594 705.675781 459.941406 C 705.675781 443.261719 703.078125 428.890625 697.507812 414.78125 C 695.949219 410.855469 690.78125 400.410156 687.984375 395.589844 C 673.265625 370.082031 650.03125 343.101562 619.898438 316.523438 C 607.460938 305.527344 596.464844 296.871094 583.738281 288.011719 L 578.628906 284.433594 L 579.03125 283.539062 C 583.996094 272.257812 586.566406 262.765625 587.605469 251.828125 C 588.039062 247.007812 587.804688 236.246094 587.171875 232.550781 C 584.113281 214.921875 574.761719 195.933594 557.820312 172.964844 C 555.714844 170.105469 552.308594 165.429688 550.257812 162.574219 C 548.210938 159.71875 545.582031 156.199219 544.398438 154.785156 C 541.3125 150.972656 531.527344 141.453125 529.074219 139.835938 C 523.070312 135.882812 512.449219 132.792969 501.050781 131.699219 C 497.039062 131.324219 481.570312 131.148438 477.757812 131.46875 Z M 547.949219 182.253906 C 553.027344 188.921875 562.8125 205.109375 566.390625 212.84375 C 572.65625 226.230469 575.164062 236.390625 575.164062 248.074219 C 575.164062 260.457031 571.816406 272.230469 564.574219 285.359375 C 559.839844 293.957031 557.964844 296.726562 551.816406 304.113281 C 535.164062 324.113281 520.273438 338.28125 493.199219 359.953125 C 469.304688 379.085938 443.039062 397.089844 387.28125 432.613281 C 377.84375 438.613281 369.703125 443.925781 369.183594 444.414062 C 368.691406 444.90625 368.117188 445.714844 367.914062 446.203125 C 367.710938 446.695312 367.511719 447.15625 367.480469 447.183594 C 367.394531 447.328125 353.773438 438.039062 349.644531 435.035156 C 337.148438 425.976562 327.21875 417.464844 320.265625 409.929688 C 314.894531 404.074219 309.671875 397.40625 306.671875 392.617188 C 302.398438 385.691406 298.5625 375.160156 298.1875 369.15625 L 298.011719 366.847656 L 301.589844 365.609375 C 307.855469 363.414062 326.066406 354.902344 341.246094 347.054688 C 352.878906 340.992188 362.804688 335.625 386.414062 322.582031 C 389.503906 320.878906 395.824219 317.417969 400.410156 314.9375 C 450.167969 287.957031 483.414062 265.390625 509.679688 240.863281 C 530.605469 221.296875 544.253906 199.164062 545.898438 182.109375 C 545.988281 180.984375 546.132812 180.03125 546.160156 180.03125 C 546.1875 180.03125 546.996094 181.042969 547.949219 182.253906 Z M 581.832031 299.527344 C 608.585938 319.699219 631.011719 340.417969 650.058594 362.550781 C 669.859375 385.605469 681.433594 404.277344 687.664062 423.320312 C 691.417969 434.691406 692.746094 443.347656 692.714844 455.898438 C 692.714844 464.007812 692.285156 469.203125 690.871094 477.511719 C 690.0625 482.359375 690.003906 482.5625 688.964844 483.832031 C 685.617188 487.929688 682.5 490.875 677.046875 495.171875 C 665.875 504.003906 651.417969 511.246094 636.8125 515.371094 C 629.050781 517.566406 617.417969 519.902344 612.109375 520.363281 L 610.230469 520.539062 L 612.683594 519.84375 C 620.507812 517.625 631.011719 512.660156 640.707031 506.660156 C 652.773438 499.15625 663.683594 489.257812 670.753906 479.417969 C 678.257812 468.914062 683.191406 456.882812 684.578125 445.714844 C 685.066406 441.644531 684.75 433.476562 683.972656 429.84375 C 682.472656 422.800781 679.5 415.992188 676.4375 412.5 C 674.9375 410.796875 673.984375 410.308594 672.136719 410.308594 C 670.40625 410.308594 669.339844 410.796875 668.242188 412.097656 C 667.175781 413.335938 667.347656 414.835938 668.734375 416.800781 C 670.8125 419.742188 672.457031 423.871094 673.320312 428.484375 C 673.785156 430.9375 673.8125 439.277344 673.351562 442.046875 C 670.753906 457.601562 663.308594 471.859375 652.195312 482.59375 C 648.675781 485.996094 642.179688 491.191406 636.695312 495.058594 C 620.738281 506.253906 602.207031 513.441406 584.949219 515.054688 C 577.214844 515.777344 560.101562 515.316406 548.902344 514.046875 C 531.730469 512.082031 506.589844 507.234375 487.601562 502.183594 C 456.632812 493.960938 425.953125 481.984375 402.71875 469 C 394.4375 464.414062 373.425781 451.6875 373.425781 451.28125 C 373.425781 451.195312 374.003906 450.90625 374.695312 450.621094 C 375.390625 450.332031 377.640625 449.148438 379.660156 447.992188 C 381.710938 446.839844 386.242188 444.300781 389.734375 442.335938 C 414.292969 428.601562 437.355469 414.085938 464.050781 395.589844 C 502.203125 369.128906 521.570312 353.460938 543.734375 331.039062 C 552.828125 321.832031 557.820312 316.175781 563.535156 308.589844 C 566.304688 304.921875 570.546875 298.605469 572.421875 295.402344 L 573.550781 293.4375 L 574.328125 293.957031 C 574.761719 294.21875 578.136719 296.726562 581.832031 299.527344 Z M 476.949219 510.898438 C 476.863281 510.988281 476.605469 511.015625 476.402344 510.929688 C 476.171875 510.84375 476.257812 510.757812 476.574219 510.757812 C 476.894531 510.726562 477.066406 510.8125 476.949219 510.898438 Z M 476.949219 510.898438 " fill-opacity="1" fill-rule="nonzero"/></g><path fill="#000000" d="M 519.289062 362.953125 C 516.867188 364.453125 516.78125 367.253906 519.089844 369.359375 C 519.519531 369.761719 523.648438 372.015625 528.238281 374.351562 C 541.082031 380.929688 550.199219 385.953125 558.425781 391.058594 C 586.449219 408.402344 603.246094 425.3125 613.261719 446.175781 C 616.640625 453.1875 618.109375 457.6875 619.785156 465.972656 C 621.285156 473.53125 622.585938 475.8125 625.558594 476.273438 C 628.152344 476.648438 630.320312 475.320312 630.75 473.011719 C 631.300781 470.097656 630.375 464.324219 628.097656 456.332031 C 622.382812 436.304688 609.855469 418.558594 589.882812 402.199219 C 573.835938 389.039062 553.546875 376.890625 529.996094 366.300781 C 527.3125 365.089844 524.746094 363.761719 524.339844 363.355469 C 523.246094 362.347656 520.589844 362.117188 519.289062 362.953125 Z M 519.289062 362.953125 " fill-opacity="1" fill-rule="nonzero"/><path fill="#000000" d="M 466.648438 153.398438 C 446.9375 154.464844 425.117188 159.804688 383.816406 173.65625 C 364.304688 180.207031 363.121094 180.640625 362.257812 181.589844 C 361.476562 182.457031 361.304688 182.859375 361.304688 183.957031 C 361.304688 186.292969 362.980469 187.765625 365.257812 187.449219 C 372.042969 186.527344 377.523438 185.054688 393.339844 179.917969 C 405.347656 176.050781 428.058594 169.414062 437.355469 167.078125 C 450.484375 163.785156 457.730469 162.71875 467.859375 162.515625 C 478.105469 162.285156 482.347656 162.835938 489.015625 165.113281 C 495.164062 167.21875 500.875 170.164062 504.570312 173.105469 C 506.878906 174.925781 507.976562 176.253906 508.84375 178.214844 C 509.476562 179.628906 509.476562 179.253906 508.898438 187.851562 C 508.757812 189.960938 508.8125 190.535156 509.304688 191.660156 C 510.429688 194.171875 513.144531 194.894531 516.171875 193.480469 C 518.945312 192.179688 520.273438 189.613281 520.933594 184.273438 C 521.773438 177.523438 520.183594 173.050781 515.132812 167.941406 C 508.757812 161.476562 497.066406 156.140625 485.117188 154.207031 C 480.355469 153.457031 472.160156 153.082031 466.648438 153.398438 Z M 466.648438 153.398438 " fill-opacity="1" fill-rule="nonzero"/><path fill="#000000" d="M 473.71875 203.867188 C 473.082031 203.925781 470.949219 204.128906 468.957031 204.273438 C 459.460938 205.082031 447.050781 207.5625 434.554688 211.167969 C 423.960938 214.226562 393.425781 223.953125 380.066406 228.511719 C 375.070312 230.242188 368.433594 232.320312 365.34375 233.128906 C 362.054688 233.996094 359.488281 234.832031 359.199219 235.121094 C 358.449219 235.839844 358.273438 237.6875 358.792969 238.929688 C 359.488281 240.632812 360.785156 241.0625 364.914062 241.0625 C 367.914062 241.035156 368.925781 240.890625 372.5625 239.996094 C 377.265625 238.8125 384.335938 236.648438 390.136719 234.65625 L 394.003906 233.300781 L 399.371094 233.648438 C 407.539062 234.195312 418.390625 235.695312 428.347656 237.714844 C 435.101562 239.074219 446.792969 242.996094 459.921875 248.277344 C 463.589844 249.777344 467.136719 251.136719 467.832031 251.308594 C 469.824219 251.855469 472.652344 251.710938 474.210938 251.019531 C 475.96875 250.242188 476.460938 249.519531 476.460938 247.730469 C 476.460938 246.402344 476.34375 246.199219 475.160156 245.046875 C 472.101562 242.132812 460.789062 237.6875 442.261719 232.089844 C 433.371094 229.40625 427.539062 228.019531 420.757812 226.980469 L 416.285156 226.289062 L 417.582031 225.941406 C 418.304688 225.742188 422.433594 224.472656 426.789062 223.144531 C 451.464844 215.527344 462.578125 213.507812 480.183594 213.507812 C 485.925781 213.507812 487.109375 213.417969 490.082031 212.8125 C 494.902344 211.832031 496.402344 210.765625 496.488281 208.371094 C 496.519531 206.261719 494.441406 204.761719 490.804688 204.242188 C 488.667969 203.953125 475.769531 203.667969 473.71875 203.867188 Z M 473.71875 203.867188 " fill-opacity="1" fill-rule="nonzero"/><path fill="#000000" d="M 241.097656 225.972656 C 240.636719 226.144531 237.78125 227.558594 234.75 229.117188 C 231.746094 230.675781 224.792969 234.023438 219.308594 236.589844 C 178.179688 255.78125 146.40625 276.007812 120.601562 299.410156 C 108.570312 310.320312 96.300781 324.660156 85.882812 340.070312 C 79.851562 348.957031 77.6875 354.585938 79.1875 357.472656 C 79.996094 359.085938 82.21875 359.347656 84.410156 358.105469 C 86.578125 356.863281 88.710938 354.035156 92.03125 347.976562 C 97.167969 338.65625 107.671875 325.671875 120.285156 313.0625 C 127.875 305.5 134.195312 299.785156 142.105469 293.46875 C 164.242188 275.71875 190.792969 259.417969 218.703125 246.429688 C 229.640625 241.351562 234.460938 238.8125 239.65625 235.40625 C 244.9375 231.972656 246.523438 230.070312 245.859375 228.050781 C 245.195312 226.03125 243.261719 225.191406 241.097656 225.972656 Z M 241.097656 225.972656 " fill-opacity="1" fill-rule="nonzero"/><path fill="#000000" d="M 64.46875 368.207031 C 62.507812 370.023438 62.824219 372.214844 65.535156 375.824219 C 66.230469 376.777344 67.960938 379.140625 69.375 381.105469 C 74.050781 387.566406 77.3125 390.308594 82.796875 392.445312 C 93.878906 396.800781 113.128906 399.023438 136.621094 398.675781 C 151.773438 398.445312 157.488281 397.925781 168.28125 395.707031 C 179.539062 393.398438 187.070312 391.433594 210.648438 384.625 C 218.816406 382.257812 227.734375 379.71875 230.417969 378.996094 C 236.363281 377.410156 237.230469 377.0625 238.5 375.621094 C 239.367188 374.699219 239.511719 374.324219 239.511719 373.109375 C 239.511719 371.234375 238.644531 369.996094 236.652344 368.957031 C 233.566406 367.398438 233.625 367.398438 208.773438 374.378906 C 201.761719 376.34375 193.652344 378.59375 190.734375 379.371094 C 187.792969 380.179688 182.511719 381.652344 178.988281 382.71875 C 160.863281 388.058594 153.070312 389.070312 129.117188 389.070312 C 107.097656 389.070312 93.128906 387.511719 84.121094 383.988281 C 82.101562 383.183594 81.496094 382.777344 79.59375 380.902344 C 77.339844 378.621094 73.992188 374.378906 71.710938 370.832031 C 70.066406 368.292969 69.027344 367.542969 67.066406 367.367188 C 65.652344 367.253906 65.449219 367.3125 64.46875 368.207031 Z M 64.46875 368.207031 " fill-opacity="1" fill-rule="nonzero"/><g clip-path="url(#3aae625aa4)"><g clip-path="url(#133260119b)"><g clip-path="url(#1cb9c264e3)"><path fill="#000000" d="M 220.199219 187 C 217.882812 188.667969 217.59375 189.359375 218.054688 192.179688 C 216.386719 189.863281 215.695312 189.574219 212.878906 190.035156 C 215.195312 188.367188 215.480469 187.675781 215.019531 184.859375 C 216.6875 187.175781 217.382812 187.460938 220.199219 187 Z M 220.199219 187 " fill-opacity="1" fill-rule="nonzero"/></g></g></g><g clip-path="url(#0ac12352af)"><g clip-path="url(#6bfd826d90)"><g clip-path="url(#910dde82d7)"><path fill="#000000" d="M 241.328125 167.117188 C 222.765625 175.8125 222.359375 176.785156 229.351562 196.054688 C 220.660156 177.492188 219.683594 177.085938 200.414062 184.078125 C 218.980469 175.386719 219.382812 174.410156 212.390625 155.140625 C 221.082031 173.707031 222.058594 174.109375 241.328125 167.117188 Z M 241.328125 167.117188 " fill-opacity="1" fill-rule="nonzero"/></g></g></g><g clip-path="url(#234e90f51d)"><g clip-path="url(#442edb7e02)"><g clip-path="url(#b98bacc5e9)"><path fill="#000000" d="M 211.773438 166.707031 C 207.625 168.648438 207.535156 168.867188 209.097656 173.171875 C 207.15625 169.023438 206.9375 168.933594 202.636719 170.496094 C 206.78125 168.554688 206.871094 168.335938 205.308594 164.035156 C 207.25 168.179688 207.46875 168.269531 211.773438 166.707031 Z M 211.773438 166.707031 " fill-opacity="1" fill-rule="nonzero"/></g></g></g><g clip-path="url(#bf955fed91)"><g clip-path="url(#4b33f352d8)"><g clip-path="url(#b6eebb1f99)"><path fill="#000000" d="M 234.554688 156.8125 C 228.464844 159.660156 228.332031 159.980469 230.625 166.300781 C 227.773438 160.210938 227.453125 160.082031 221.132812 162.375 C 227.222656 159.523438 227.355469 159.203125 225.0625 152.882812 C 227.914062 158.972656 228.234375 159.105469 234.554688 156.8125 Z M 234.554688 156.8125 " fill-opacity="1" fill-rule="nonzero"/></g></g></g><g clip-path="url(#dc2f332da1)"><g clip-path="url(#47502be8f8)"><g clip-path="url(#62846f5b49)"><path fill="#000000" d="M 232.660156 152.242188 C 231 153.019531 230.964844 153.105469 231.589844 154.828125 C 230.8125 153.167969 230.726562 153.132812 229.003906 153.757812 C 230.664062 152.980469 230.699219 152.894531 230.074219 151.171875 C 230.851562 152.832031 230.9375 152.867188 232.660156 152.242188 Z M 232.660156 152.242188 " fill-opacity="1" fill-rule="nonzero"/></g></g></g><g clip-path="url(#28fd5d408d)"><g clip-path="url(#f3952dd8df)"><g clip-path="url(#2b2d419809)"><path fill="#000000" d="M 221.230469 154.472656 C 219.574219 155.246094 219.535156 155.335938 220.160156 157.054688 C 219.386719 155.398438 219.296875 155.363281 217.578125 155.988281 C 219.234375 155.210938 219.269531 155.121094 218.644531 153.402344 C 219.421875 155.058594 219.511719 155.097656 221.230469 154.472656 Z M 221.230469 154.472656 " fill-opacity="1" fill-rule="nonzero"/></g></g></g><g clip-path="url(#4259821028)"><g clip-path="url(#a8d5d6a332)"><g clip-path="url(#d705451ed0)"><path fill="#000000" d="M 628.613281 292.402344 C 626.769531 291.644531 626.253906 291.730469 624.753906 293.042969 C 625.511719 291.199219 625.429688 290.683594 624.117188 289.183594 C 625.960938 289.941406 626.476562 289.855469 627.972656 288.546875 C 627.214844 290.386719 627.300781 290.902344 628.613281 292.402344 Z M 628.613281 292.402344 " fill-opacity="1" fill-rule="nonzero"/></g></g></g><g clip-path="url(#7f73395dbf)"><g clip-path="url(#0bae15e3a0)"><g clip-path="url(#f1f6f9f026)"><path fill="#000000" d="M 648.175781 297.59375 C 636.1875 289.800781 635.460938 289.917969 626.621094 301.160156 C 634.417969 289.171875 634.296875 288.445312 623.054688 279.605469 C 635.042969 287.402344 635.769531 287.28125 644.609375 276.039062 C 636.816406 288.027344 636.933594 288.753906 648.175781 297.59375 Z M 648.175781 297.59375 " fill-opacity="1" fill-rule="nonzero"/></g></g></g><g clip-path="url(#b3583805ff)"><g clip-path="url(#8e34baa16e)"><g clip-path="url(#3dc262a215)"><path fill="#000000" d="M 637.53125 279.933594 C 634.851562 278.195312 634.691406 278.222656 632.714844 280.730469 C 634.457031 278.054688 634.429688 277.890625 631.917969 275.917969 C 634.597656 277.660156 634.757812 277.632812 636.734375 275.121094 C 634.992188 277.800781 635.019531 277.960938 637.53125 279.933594 Z M 637.53125 279.933594 " fill-opacity="1" fill-rule="nonzero"/></g></g></g><g clip-path="url(#068a474aa9)"><g clip-path="url(#049d1208b0)"><g clip-path="url(#36704f9ca2)"><path fill="#000000" d="M 651.785156 289.785156 C 647.855469 287.226562 647.617188 287.265625 644.714844 290.953125 C 647.273438 287.019531 647.234375 286.78125 643.546875 283.882812 C 647.480469 286.441406 647.71875 286.402344 650.617188 282.714844 C 648.058594 286.644531 648.097656 286.882812 651.785156 289.785156 Z M 651.785156 289.785156 " fill-opacity="1" fill-rule="nonzero"/></g></g></g><g clip-path="url(#2d42d576ed)"><g clip-path="url(#f7a6c3b7db)"><g clip-path="url(#9724919a79)"><path fill="#000000" d="M 653.792969 286.976562 C 652.722656 286.28125 652.660156 286.292969 651.867188 287.296875 C 652.566406 286.226562 652.554688 286.160156 651.550781 285.371094 C 652.621094 286.066406 652.6875 286.058594 653.476562 285.050781 C 652.78125 286.125 652.789062 286.1875 653.792969 286.976562 Z M 653.792969 286.976562 " fill-opacity="1" fill-rule="nonzero"/></g></g></g><g clip-path="url(#cdbd8ff36f)"><g clip-path="url(#53ba4072ca)"><g clip-path="url(#b7f1c6dbe9)"><path fill="#000000" d="M 648.261719 281.03125 C 647.191406 280.332031 647.128906 280.34375 646.339844 281.347656 C 647.035156 280.277344 647.023438 280.210938 646.019531 279.421875 C 647.089844 280.121094 647.15625 280.109375 647.945312 279.105469 C 647.25 280.175781 647.257812 280.238281 648.261719 281.03125 Z M 648.261719 281.03125 " fill-opacity="1" fill-rule="nonzero"/></g></g></g><g clip-path="url(#296fcb2987)"><g clip-path="url(#20cf8fac55)"><g clip-path="url(#a043c00cce)"><path fill="#000000" d="M 258.324219 538.460938 C 260.15625 539.246094 260.671875 539.171875 262.191406 537.882812 C 261.40625 539.714844 261.480469 540.230469 262.769531 541.75 C 260.941406 540.964844 260.421875 541.039062 258.902344 542.328125 C 259.691406 540.5 259.613281 539.980469 258.324219 538.460938 Z M 258.324219 538.460938 " fill-opacity="1" fill-rule="nonzero"/></g></g></g><g clip-path="url(#4db494d8cb)"><g clip-path="url(#3841aea9f4)"><g clip-path="url(#91b4e57536)"><path fill="#000000" d="M 238.84375 532.964844 C 250.710938 540.945312 251.4375 540.835938 260.453125 529.734375 C 252.472656 541.601562 252.582031 542.328125 263.683594 551.34375 C 251.816406 543.359375 251.089844 543.46875 242.074219 554.570312 C 250.054688 542.707031 249.945312 541.976562 238.84375 532.964844 Z M 238.84375 532.964844 " fill-opacity="1" fill-rule="nonzero"/></g></g></g><g clip-path="url(#bd9f745eca)"><g clip-path="url(#210b0b25f0)"><g clip-path="url(#41f7f2a1be)"><path fill="#000000" d="M 249.214844 550.789062 C 251.863281 552.570312 252.027344 552.546875 254.039062 550.066406 C 252.257812 552.714844 252.28125 552.878906 254.761719 554.890625 C 252.109375 553.109375 251.949219 553.132812 249.933594 555.613281 C 251.71875 552.964844 251.691406 552.800781 249.214844 550.789062 Z M 249.214844 550.789062 " fill-opacity="1" fill-rule="nonzero"/></g></g></g><g clip-path="url(#1a9cdb607a)"><g clip-path="url(#72db5eb5a6)"><g clip-path="url(#bb7ae05a5f)"><path fill="#000000" d="M 235.113281 540.714844 C 239.003906 543.335938 239.246094 543.300781 242.199219 539.65625 C 239.582031 543.550781 239.617188 543.789062 243.257812 546.746094 C 239.367188 544.125 239.128906 544.164062 236.171875 547.804688 C 238.789062 543.910156 238.753906 543.671875 235.113281 540.714844 Z M 235.113281 540.714844 " fill-opacity="1" fill-rule="nonzero"/></g></g></g><g clip-path="url(#df6c8c9e67)"><g clip-path="url(#4afd9613ca)"><g clip-path="url(#0cbace875e)"><path fill="#000000" d="M 233.0625 543.488281 C 234.121094 544.203125 234.1875 544.195312 234.992188 543.203125 C 234.277344 544.261719 234.289062 544.328125 235.28125 545.132812 C 234.21875 544.417969 234.15625 544.429688 233.351562 545.421875 C 234.0625 544.359375 234.054688 544.296875 233.0625 543.488281 Z M 233.0625 543.488281 " fill-opacity="1" fill-rule="nonzero"/></g></g></g><g clip-path="url(#9074f26bcf)"><g clip-path="url(#0c5e527b61)"><g clip-path="url(#f19283a7f1)"><path fill="#000000" d="M 238.5 549.523438 C 239.558594 550.238281 239.625 550.226562 240.429688 549.234375 C 239.714844 550.296875 239.726562 550.359375 240.71875 551.167969 C 239.65625 550.453125 239.59375 550.464844 238.785156 551.453125 C 239.5 550.394531 239.488281 550.328125 238.5 549.523438 Z M 238.5 549.523438 " fill-opacity="1" fill-rule="nonzero"/></g></g></g></svg>